<svg width="189" height="81" viewBox="0 0 189 81" fill="none" xmlns="http://www.w3.org/2000/svg">
<g filter="url(#filter0_d_1_768)">
<path d="M16 17C16 14.2386 18.2386 12 21 12H167.5C170.261 12 172.5 14.2386 172.5 17V43.6533C172.5 46.4147 170.261 48.6533 167.5 48.6533L55.413 48.6531C53.6126 48.6531 51.9513 49.6209 51.0633 51.1871L45.5 61L38.978 50.9342C38.0564 49.5118 36.4768 48.6531 34.7819 48.6531H21C18.2386 48.6531 16 46.4145 16 43.6531V17Z" fill="#232323"/>
<path d="M21 12.5H167.5C169.985 12.5 172 14.5147 172 17V43.6533C172 46.1386 169.985 48.1533 167.5 48.1533L55.413 48.1531C53.4326 48.1531 51.6051 49.2177 50.6284 50.9405L45.4715 60.0365L39.3977 50.6623C38.3838 49.0976 36.6463 48.1531 34.7819 48.1531H21C18.5147 48.1531 16.5 46.1383 16.5 43.6531V17C16.5 14.5147 18.5147 12.5 21 12.5Z" stroke="#75382E"/>
</g>
<path d="M33.7047 34.5V24.7H37.7787C38.8147 24.7 39.6267 24.9147 40.2147 25.344C40.8121 25.764 41.1107 26.3847 41.1107 27.206C41.1107 28.018 40.8261 28.634 40.2567 29.054C39.6874 29.4647 38.9407 29.67 38.0167 29.67L38.2547 29.32C39.3467 29.32 40.1774 29.5347 40.7467 29.964C41.3161 30.3933 41.6007 31.0233 41.6007 31.854C41.6007 32.694 41.3021 33.3473 40.7047 33.814C40.1167 34.2713 39.2301 34.5 38.0447 34.5H33.7047ZM34.7267 33.674H38.0447C38.8754 33.674 39.5054 33.52 39.9347 33.212C40.3641 32.904 40.5787 32.428 40.5787 31.784C40.5787 31.1493 40.3641 30.6827 39.9347 30.384C39.5054 30.0853 38.8754 29.936 38.0447 29.936H34.7267V33.674ZM34.7267 29.138H37.7227C38.4787 29.138 39.0574 28.9887 39.4587 28.69C39.8694 28.382 40.0747 27.9293 40.0747 27.332C40.0747 26.7347 39.8694 26.2867 39.4587 25.988C39.0574 25.68 38.4787 25.526 37.7227 25.526H34.7267V29.138ZM51.1211 34.5V27.15H52.1151V34.5H51.1211ZM47.0471 29.74C47.9711 29.7493 48.6757 29.9547 49.1611 30.356C49.6464 30.7573 49.8891 31.336 49.8891 32.092C49.8891 32.876 49.6277 33.478 49.1051 33.898C48.5824 34.318 47.8357 34.5233 46.8651 34.514L43.9531 34.5V27.15H44.9471V29.712L47.0471 29.74ZM46.7951 33.758C47.4857 33.7673 48.0037 33.632 48.3491 33.352C48.7037 33.0627 48.8811 32.6427 48.8811 32.092C48.8811 31.5413 48.7084 31.14 48.3631 30.888C48.0177 30.6267 47.4951 30.4913 46.7951 30.482L44.9471 30.454V33.73L46.7951 33.758ZM54.9453 34.5V27.15H58.1933C59.0239 27.15 59.6773 27.3087 60.1533 27.626C60.6386 27.9433 60.8813 28.41 60.8813 29.026C60.8813 29.6233 60.6526 30.0853 60.1953 30.412C59.7379 30.7293 59.1359 30.888 58.3893 30.888L58.5853 30.594C59.4626 30.594 60.1066 30.7573 60.5173 31.084C60.9279 31.4107 61.1333 31.882 61.1333 32.498C61.1333 33.1327 60.8999 33.6273 60.4333 33.982C59.9759 34.3273 59.2619 34.5 58.2913 34.5H54.9453ZM55.9113 33.716H58.2493C58.8746 33.716 59.3459 33.618 59.6633 33.422C59.9899 33.2167 60.1533 32.89 60.1533 32.442C60.1533 31.994 60.0086 31.6673 59.7193 31.462C59.4299 31.2567 58.9726 31.154 58.3473 31.154H55.9113V33.716ZM55.9113 30.412H58.1233C58.6926 30.412 59.1266 30.3047 59.4253 30.09C59.7333 29.8753 59.8873 29.5627 59.8873 29.152C59.8873 28.7413 59.7333 28.4333 59.4253 28.228C59.1266 28.0227 58.6926 27.92 58.1233 27.92H55.9113V30.412ZM66.6128 34.57C65.8475 34.57 65.1755 34.4113 64.5968 34.094C64.0182 33.7673 63.5655 33.324 63.2388 32.764C62.9122 32.1947 62.7488 31.546 62.7488 30.818C62.7488 30.09 62.9028 29.446 63.2108 28.886C63.5282 28.326 63.9575 27.8873 64.4988 27.57C65.0495 27.2433 65.6655 27.08 66.3468 27.08C67.0375 27.08 67.6488 27.2387 68.1808 27.556C68.7222 27.864 69.1468 28.3027 69.4548 28.872C69.7628 29.432 69.9168 30.0807 69.9168 30.818C69.9168 30.8647 69.9122 30.916 69.9028 30.972C69.9028 31.0187 69.9028 31.07 69.9028 31.126H63.5048V30.384H69.3708L68.9788 30.678C68.9788 30.146 68.8622 29.6747 68.6288 29.264C68.4048 28.844 68.0968 28.5173 67.7048 28.284C67.3128 28.0507 66.8602 27.934 66.3468 27.934C65.8428 27.934 65.3902 28.0507 64.9888 28.284C64.5875 28.5173 64.2748 28.844 64.0508 29.264C63.8268 29.684 63.7148 30.1647 63.7148 30.706V30.86C63.7148 31.42 63.8362 31.9147 64.0788 32.344C64.3308 32.764 64.6762 33.0953 65.1148 33.338C65.5628 33.5713 66.0715 33.688 66.6408 33.688C67.0888 33.688 67.5042 33.6087 67.8868 33.45C68.2788 33.2913 68.6148 33.0487 68.8948 32.722L69.4548 33.366C69.1282 33.758 68.7175 34.0567 68.2228 34.262C67.7375 34.4673 67.2008 34.57 66.6128 34.57ZM75.1971 34.57C74.4691 34.57 73.8158 34.4113 73.2371 34.094C72.6678 33.7673 72.2198 33.324 71.8931 32.764C71.5665 32.1947 71.4031 31.546 71.4031 30.818C71.4031 30.0807 71.5665 29.432 71.8931 28.872C72.2198 28.312 72.6678 27.8733 73.2371 27.556C73.8158 27.2387 74.4691 27.08 75.1971 27.08C75.8225 27.08 76.3871 27.2013 76.8911 27.444C77.3951 27.6867 77.7918 28.0507 78.0811 28.536L77.3391 29.04C77.0871 28.6667 76.7745 28.3913 76.4011 28.214C76.0278 28.0367 75.6218 27.948 75.1831 27.948C74.6605 27.948 74.1891 28.0693 73.7691 28.312C73.3491 28.5453 73.0178 28.8767 72.7751 29.306C72.5325 29.7353 72.4111 30.2393 72.4111 30.818C72.4111 31.3967 72.5325 31.9007 72.7751 32.33C73.0178 32.7593 73.3491 33.0953 73.7691 33.338C74.1891 33.5713 74.6605 33.688 75.1831 33.688C75.6218 33.688 76.0278 33.5993 76.4011 33.422C76.7745 33.2447 77.0871 32.974 77.3391 32.61L78.0811 33.114C77.7918 33.59 77.3951 33.954 76.8911 34.206C76.3871 34.4487 75.8225 34.57 75.1971 34.57ZM81.2691 34.5V27.752L81.5211 28.018H78.4831V27.15H85.0491V28.018H82.0111L82.2631 27.752V34.5H81.2691ZM86.4863 34.5V27.15H87.4803V32.988L92.3943 27.15H93.2763V34.5H92.2823V28.648L87.3823 34.5H86.4863ZM99.789 34.5V27.15H103.037C103.868 27.15 104.521 27.3087 104.997 27.626C105.482 27.9433 105.725 28.41 105.725 29.026C105.725 29.6233 105.496 30.0853 105.039 30.412C104.582 30.7293 103.98 30.888 103.233 30.888L103.429 30.594C104.306 30.594 104.95 30.7573 105.361 31.084C105.772 31.4107 105.977 31.882 105.977 32.498C105.977 33.1327 105.744 33.6273 105.277 33.982C104.82 34.3273 104.106 34.5 103.135 34.5H99.789ZM100.755 33.716H103.093C103.718 33.716 104.19 33.618 104.507 33.422C104.834 33.2167 104.997 32.89 104.997 32.442C104.997 31.994 104.852 31.6673 104.563 31.462C104.274 31.2567 103.816 31.154 103.191 31.154H100.755V33.716ZM100.755 30.412H102.967C103.536 30.412 103.97 30.3047 104.269 30.09C104.577 29.8753 104.731 29.5627 104.731 29.152C104.731 28.7413 104.577 28.4333 104.269 28.228C103.97 28.0227 103.536 27.92 102.967 27.92H100.755V30.412ZM114.855 34.584C114.127 34.584 113.427 34.4673 112.755 34.234C112.092 33.9913 111.579 33.6833 111.215 33.31L111.621 32.512C111.966 32.848 112.428 33.1327 113.007 33.366C113.595 33.59 114.211 33.702 114.855 33.702C115.471 33.702 115.97 33.6273 116.353 33.478C116.745 33.3193 117.029 33.1093 117.207 32.848C117.393 32.5867 117.487 32.2973 117.487 31.98C117.487 31.5973 117.375 31.2893 117.151 31.056C116.936 30.8227 116.651 30.6407 116.297 30.51C115.942 30.37 115.55 30.2487 115.121 30.146C114.691 30.0433 114.262 29.936 113.833 29.824C113.403 29.7027 113.007 29.544 112.643 29.348C112.288 29.152 111.999 28.8953 111.775 28.578C111.56 28.2513 111.453 27.8267 111.453 27.304C111.453 26.8187 111.579 26.3753 111.831 25.974C112.092 25.5633 112.489 25.2367 113.021 24.994C113.553 24.742 114.234 24.616 115.065 24.616C115.615 24.616 116.161 24.6953 116.703 24.854C117.244 25.0033 117.711 25.2133 118.103 25.484L117.753 26.31C117.333 26.03 116.885 25.8247 116.409 25.694C115.942 25.5633 115.489 25.498 115.051 25.498C114.463 25.498 113.977 25.5773 113.595 25.736C113.212 25.8947 112.927 26.1093 112.741 26.38C112.563 26.6413 112.475 26.94 112.475 27.276C112.475 27.6587 112.582 27.9667 112.797 28.2C113.021 28.4333 113.31 28.6153 113.665 28.746C114.029 28.8767 114.425 28.9933 114.855 29.096C115.284 29.1987 115.709 29.3107 116.129 29.432C116.558 29.5533 116.95 29.712 117.305 29.908C117.669 30.0947 117.958 30.3467 118.173 30.664C118.397 30.9813 118.509 31.3967 118.509 31.91C118.509 32.386 118.378 32.8293 118.117 33.24C117.855 33.6413 117.454 33.968 116.913 34.22C116.381 34.4627 115.695 34.584 114.855 34.584ZM122.88 34.57C122.189 34.57 121.657 34.3833 121.284 34.01C120.911 33.6367 120.724 33.1093 120.724 32.428V25.526H121.718V32.372C121.718 32.8013 121.825 33.1327 122.04 33.366C122.264 33.5993 122.581 33.716 122.992 33.716C123.431 33.716 123.795 33.59 124.084 33.338L124.434 34.052C124.238 34.2293 124 34.36 123.72 34.444C123.449 34.528 123.169 34.57 122.88 34.57ZM119.408 27.976V27.15H123.958V27.976H119.408ZM129.106 34.57C128.34 34.57 127.668 34.4113 127.09 34.094C126.511 33.7673 126.058 33.324 125.732 32.764C125.405 32.1947 125.242 31.546 125.242 30.818C125.242 30.09 125.396 29.446 125.704 28.886C126.021 28.326 126.45 27.8873 126.992 27.57C127.542 27.2433 128.158 27.08 128.84 27.08C129.53 27.08 130.142 27.2387 130.674 27.556C131.215 27.864 131.64 28.3027 131.948 28.872C132.256 29.432 132.41 30.0807 132.41 30.818C132.41 30.8647 132.405 30.916 132.396 30.972C132.396 31.0187 132.396 31.07 132.396 31.126H125.998V30.384H131.864L131.472 30.678C131.472 30.146 131.355 29.6747 131.122 29.264C130.898 28.844 130.59 28.5173 130.198 28.284C129.806 28.0507 129.353 27.934 128.84 27.934C128.336 27.934 127.883 28.0507 127.482 28.284C127.08 28.5173 126.768 28.844 126.544 29.264C126.32 29.684 126.208 30.1647 126.208 30.706V30.86C126.208 31.42 126.329 31.9147 126.572 32.344C126.824 32.764 127.169 33.0953 127.608 33.338C128.056 33.5713 128.564 33.688 129.134 33.688C129.582 33.688 129.997 33.6087 130.38 33.45C130.772 33.2913 131.108 33.0487 131.388 32.722L131.948 33.366C131.621 33.758 131.21 34.0567 130.716 34.262C130.23 34.4673 129.694 34.57 129.106 34.57ZM138.834 34.5V32.876L138.792 32.61V29.894C138.792 29.2687 138.614 28.788 138.26 28.452C137.914 28.116 137.396 27.948 136.706 27.948C136.23 27.948 135.777 28.0273 135.348 28.186C134.918 28.3447 134.554 28.5547 134.256 28.816L133.808 28.074C134.181 27.7567 134.629 27.514 135.152 27.346C135.674 27.1687 136.225 27.08 136.804 27.08C137.756 27.08 138.488 27.318 139.002 27.794C139.524 28.2607 139.786 28.9747 139.786 29.936V34.5H138.834ZM136.3 34.57C135.749 34.57 135.268 34.4813 134.858 34.304C134.456 34.1173 134.148 33.8653 133.934 33.548C133.719 33.2213 133.612 32.848 133.612 32.428C133.612 32.0453 133.7 31.7 133.878 31.392C134.064 31.0747 134.363 30.8227 134.774 30.636C135.194 30.44 135.754 30.342 136.454 30.342H138.988V31.084H136.482C135.772 31.084 135.278 31.21 134.998 31.462C134.727 31.714 134.592 32.0267 134.592 32.4C134.592 32.82 134.755 33.156 135.082 33.408C135.408 33.66 135.866 33.786 136.454 33.786C137.014 33.786 137.494 33.66 137.896 33.408C138.306 33.1467 138.605 32.7733 138.792 32.288L139.016 32.974C138.829 33.4593 138.502 33.8467 138.036 34.136C137.578 34.4253 137 34.57 136.3 34.57ZM151.67 27.08C152.267 27.08 152.785 27.1967 153.224 27.43C153.672 27.654 154.017 27.9993 154.26 28.466C154.512 28.9327 154.638 29.5207 154.638 30.23V34.5H153.644V30.328C153.644 29.5533 153.457 28.97 153.084 28.578C152.72 28.1767 152.202 27.976 151.53 27.976C151.026 27.976 150.587 28.0833 150.214 28.298C149.85 28.5033 149.565 28.8067 149.36 29.208C149.164 29.6 149.066 30.076 149.066 30.636V34.5H148.072V30.328C148.072 29.5533 147.885 28.97 147.512 28.578C147.138 28.1767 146.616 27.976 145.944 27.976C145.449 27.976 145.015 28.0833 144.642 28.298C144.268 28.5033 143.979 28.8067 143.774 29.208C143.578 29.6 143.48 30.076 143.48 30.636V34.5H142.486V27.15H143.438V29.138L143.284 28.788C143.508 28.256 143.867 27.8407 144.362 27.542C144.866 27.234 145.458 27.08 146.14 27.08C146.858 27.08 147.47 27.262 147.974 27.626C148.478 27.9807 148.804 28.5173 148.954 29.236L148.562 29.082C148.776 28.4847 149.154 28.004 149.696 27.64C150.246 27.2667 150.904 27.08 151.67 27.08Z" fill="white"/>
<defs>
<filter id="filter0_d_1_768" x="0" y="0" width="188.5" height="81" filterUnits="userSpaceOnUse" color-interpolation-filters="sRGB">
<feFlood flood-opacity="0" result="BackgroundImageFix"/>
<feColorMatrix in="SourceAlpha" type="matrix" values="0 0 0 0 0 0 0 0 0 0 0 0 0 0 0 0 0 0 127 0" result="hardAlpha"/>
<feOffset dy="4"/>
<feGaussianBlur stdDeviation="8"/>
<feComposite in2="hardAlpha" operator="out"/>
<feColorMatrix type="matrix" values="0 0 0 0 0.458824 0 0 0 0 0.219608 0 0 0 0 0.180392 0 0 0 0.29 0"/>
<feBlend mode="normal" in2="BackgroundImageFix" result="effect1_dropShadow_1_768"/>
<feBlend mode="normal" in="SourceGraphic" in2="effect1_dropShadow_1_768" result="shape"/>
</filter>
</defs>
</svg>
