<svg width="189" height="81" viewBox="0 0 189 81" fill="none" xmlns="http://www.w3.org/2000/svg">
<g filter="url(#filter0_d_1_741)">
<path d="M16 17C16 14.2386 18.2386 12 21 12H167.5C170.261 12 172.5 14.2386 172.5 17V43.6533C172.5 46.4147 170.261 48.6533 167.5 48.6533L55.413 48.6531C53.6126 48.6531 51.9513 49.6209 51.0633 51.1871L45.5 61L38.978 50.9342C38.0564 49.5118 36.4768 48.6531 34.7819 48.6531H21C18.2386 48.6531 16 46.4145 16 43.6531V17Z" fill="#232323"/>
<path d="M21 12.5H167.5C169.985 12.5 172 14.5147 172 17V43.6533C172 46.1386 169.985 48.1533 167.5 48.1533L55.413 48.1531C53.4326 48.1531 51.6051 49.2177 50.6284 50.9405L45.4715 60.0365L39.3977 50.6623C38.3838 49.0976 36.6463 48.1531 34.7819 48.1531H21C18.5147 48.1531 16.5 46.1383 16.5 43.6531V17C16.5 14.5147 18.5147 12.5 21 12.5Z" stroke="#75382E"/>
</g>
<path d="M29.9323 34.5V24.7H38.1783V34.5H37.1563V25.316L37.4223 25.596H30.6883L30.9543 25.316V34.5H29.9323ZM45.041 34.57C44.4063 34.57 43.8323 34.4253 43.319 34.136C42.8057 33.8373 42.395 33.4127 42.087 32.862C41.7883 32.302 41.639 31.6207 41.639 30.818C41.639 30.0153 41.7883 29.3387 42.087 28.788C42.3857 28.228 42.7917 27.8033 43.305 27.514C43.8183 27.2247 44.397 27.08 45.041 27.08C45.741 27.08 46.3663 27.2387 46.917 27.556C47.477 27.864 47.9157 28.3027 48.233 28.872C48.5503 29.432 48.709 30.0807 48.709 30.818C48.709 31.5647 48.5503 32.218 48.233 32.778C47.9157 33.338 47.477 33.7767 46.917 34.094C46.3663 34.4113 45.741 34.57 45.041 34.57ZM41.247 37.216V27.15H42.199V29.362L42.101 30.832L42.241 32.316V37.216H41.247ZM44.971 33.688C45.4937 33.688 45.9603 33.5713 46.371 33.338C46.7817 33.0953 47.1083 32.7593 47.351 32.33C47.5937 31.8913 47.715 31.3873 47.715 30.818C47.715 30.2487 47.5937 29.7493 47.351 29.32C47.1083 28.8907 46.7817 28.5547 46.371 28.312C45.9603 28.0693 45.4937 27.948 44.971 27.948C44.4483 27.948 43.977 28.0693 43.557 28.312C43.1463 28.5547 42.8197 28.8907 42.577 29.32C42.3437 29.7493 42.227 30.2487 42.227 30.818C42.227 31.3873 42.3437 31.8913 42.577 32.33C42.8197 32.7593 43.1463 33.0953 43.557 33.338C43.977 33.5713 44.4483 33.688 44.971 33.688ZM53.8687 34.57C53.1593 34.57 52.52 34.4113 51.9507 34.094C51.3907 33.7673 50.9473 33.324 50.6207 32.764C50.294 32.1947 50.1307 31.546 50.1307 30.818C50.1307 30.0807 50.294 29.432 50.6207 28.872C50.9473 28.312 51.3907 27.8733 51.9507 27.556C52.5107 27.2387 53.15 27.08 53.8687 27.08C54.5967 27.08 55.2407 27.2387 55.8007 27.556C56.37 27.8733 56.8133 28.312 57.1307 28.872C57.4573 29.432 57.6207 30.0807 57.6207 30.818C57.6207 31.546 57.4573 32.1947 57.1307 32.764C56.8133 33.324 56.37 33.7673 55.8007 34.094C55.2313 34.4113 54.5873 34.57 53.8687 34.57ZM53.8687 33.688C54.4007 33.688 54.872 33.5713 55.2827 33.338C55.6933 33.0953 56.0153 32.7593 56.2487 32.33C56.4913 31.8913 56.6127 31.3873 56.6127 30.818C56.6127 30.2393 56.4913 29.7353 56.2487 29.306C56.0153 28.8767 55.6933 28.5453 55.2827 28.312C54.872 28.0693 54.4053 27.948 53.8827 27.948C53.36 27.948 52.8933 28.0693 52.4827 28.312C52.072 28.5453 51.7453 28.8767 51.5027 29.306C51.26 29.7353 51.1387 30.2393 51.1387 30.818C51.1387 31.3873 51.26 31.8913 51.5027 32.33C51.7453 32.7593 52.072 33.0953 52.4827 33.338C52.8933 33.5713 53.3553 33.688 53.8687 33.688ZM64.744 34.024V28.018H61.202L61.118 29.656C61.0994 30.1507 61.0667 30.636 61.02 31.112C60.9827 31.588 60.9127 32.0267 60.81 32.428C60.7167 32.82 60.5814 33.142 60.404 33.394C60.2267 33.6367 59.998 33.7767 59.718 33.814L58.724 33.632C59.0134 33.6413 59.2514 33.5387 59.438 33.324C59.6247 33.1 59.7694 32.7967 59.872 32.414C59.9747 32.0313 60.0494 31.5973 60.096 31.112C60.1427 30.6173 60.18 30.1133 60.208 29.6L60.306 27.15H65.738V34.024H64.744ZM58.416 36.278V33.632H66.886V36.278H65.948V34.5H59.354V36.278H58.416ZM73.3872 34.5V32.876L73.3452 32.61V29.894C73.3452 29.2687 73.1678 28.788 72.8132 28.452C72.4678 28.116 71.9498 27.948 71.2592 27.948C70.7832 27.948 70.3305 28.0273 69.9012 28.186C69.4718 28.3447 69.1078 28.5547 68.8092 28.816L68.3612 28.074C68.7345 27.7567 69.1825 27.514 69.7052 27.346C70.2278 27.1687 70.7785 27.08 71.3572 27.08C72.3092 27.08 73.0418 27.318 73.5552 27.794C74.0778 28.2607 74.3392 28.9747 74.3392 29.936V34.5H73.3872ZM70.8532 34.57C70.3025 34.57 69.8218 34.4813 69.4112 34.304C69.0098 34.1173 68.7018 33.8653 68.4872 33.548C68.2725 33.2213 68.1652 32.848 68.1652 32.428C68.1652 32.0453 68.2538 31.7 68.4312 31.392C68.6178 31.0747 68.9165 30.8227 69.3272 30.636C69.7472 30.44 70.3072 30.342 71.0072 30.342H73.5412V31.084H71.0352C70.3258 31.084 69.8312 31.21 69.5512 31.462C69.2805 31.714 69.1452 32.0267 69.1452 32.4C69.1452 32.82 69.3085 33.156 69.6352 33.408C69.9618 33.66 70.4192 33.786 71.0072 33.786C71.5672 33.786 72.0478 33.66 72.4492 33.408C72.8598 33.1467 73.1585 32.7733 73.3452 32.288L73.5692 32.974C73.3825 33.4593 73.0558 33.8467 72.5892 34.136C72.1318 34.4253 71.5532 34.57 70.8532 34.57ZM85.7073 34.5L83.1873 30.86L84.0133 30.37L86.8973 34.5H85.7073ZM81.5353 31.224V30.37H83.8593V31.224H81.5353ZM84.1113 30.93L83.1593 30.79L85.6093 27.15H86.6873L84.1113 30.93ZM76.9993 34.5H75.8093L78.6933 30.37L79.5053 30.86L76.9993 34.5ZM81.8433 34.5H80.8493V27.15H81.8433V34.5ZM81.1573 31.224H78.8473V30.37H81.1573V31.224ZM78.6093 30.93L76.0193 27.15H77.0973L79.5333 30.79L78.6093 30.93ZM92.979 34.5V32.876L92.937 32.61V29.894C92.937 29.2687 92.7596 28.788 92.405 28.452C92.0596 28.116 91.5416 27.948 90.851 27.948C90.375 27.948 89.9223 28.0273 89.493 28.186C89.0636 28.3447 88.6996 28.5547 88.401 28.816L87.953 28.074C88.3263 27.7567 88.7743 27.514 89.297 27.346C89.8196 27.1687 90.3703 27.08 90.949 27.08C91.901 27.08 92.6336 27.318 93.147 27.794C93.6696 28.2607 93.931 28.9747 93.931 29.936V34.5H92.979ZM90.445 34.57C89.8943 34.57 89.4136 34.4813 89.003 34.304C88.6016 34.1173 88.2936 33.8653 88.079 33.548C87.8643 33.2213 87.757 32.848 87.757 32.428C87.757 32.0453 87.8456 31.7 88.023 31.392C88.2096 31.0747 88.5083 30.8227 88.919 30.636C89.339 30.44 89.899 30.342 90.599 30.342H93.133V31.084H90.627C89.9176 31.084 89.423 31.21 89.143 31.462C88.8723 31.714 88.737 32.0267 88.737 32.4C88.737 32.82 88.9003 33.156 89.227 33.408C89.5536 33.66 90.011 33.786 90.599 33.786C91.159 33.786 91.6396 33.66 92.041 33.408C92.4516 33.1467 92.7503 32.7733 92.937 32.288L93.161 32.974C92.9743 33.4593 92.6476 33.8467 92.181 34.136C91.7236 34.4253 91.145 34.57 90.445 34.57ZM100.241 34.5V27.15H101.235V30.398H105.869V27.15H106.863V34.5H105.869V31.252H101.235V34.5H100.241ZM114.252 34.5V32.876L114.21 32.61V29.894C114.21 29.2687 114.033 28.788 113.678 28.452C113.333 28.116 112.815 27.948 112.124 27.948C111.648 27.948 111.196 28.0273 110.766 28.186C110.337 28.3447 109.973 28.5547 109.674 28.816L109.226 28.074C109.6 27.7567 110.048 27.514 110.57 27.346C111.093 27.1687 111.644 27.08 112.222 27.08C113.174 27.08 113.907 27.318 114.42 27.794C114.943 28.2607 115.204 28.9747 115.204 29.936V34.5H114.252ZM111.718 34.57C111.168 34.57 110.687 34.4813 110.276 34.304C109.875 34.1173 109.567 33.8653 109.352 33.548C109.138 33.2213 109.03 32.848 109.03 32.428C109.03 32.0453 109.119 31.7 109.296 31.392C109.483 31.0747 109.782 30.8227 110.192 30.636C110.612 30.44 111.172 30.342 111.872 30.342H114.406V31.084H111.9C111.191 31.084 110.696 31.21 110.416 31.462C110.146 31.714 110.01 32.0267 110.01 32.4C110.01 32.82 110.174 33.156 110.5 33.408C110.827 33.66 111.284 33.786 111.872 33.786C112.432 33.786 112.913 33.66 113.314 33.408C113.725 33.1467 114.024 32.7733 114.21 32.288L114.434 32.974C114.248 33.4593 113.921 33.8467 113.454 34.136C112.997 34.4253 112.418 34.57 111.718 34.57ZM124.595 34.57C123.867 34.57 123.213 34.4113 122.635 34.094C122.065 33.7673 121.617 33.324 121.291 32.764C120.964 32.1947 120.801 31.546 120.801 30.818C120.801 30.0807 120.964 29.432 121.291 28.872C121.617 28.312 122.065 27.8733 122.635 27.556C123.213 27.2387 123.867 27.08 124.595 27.08C125.22 27.08 125.785 27.2013 126.289 27.444C126.793 27.6867 127.189 28.0507 127.479 28.536L126.737 29.04C126.485 28.6667 126.172 28.3913 125.799 28.214C125.425 28.0367 125.019 27.948 124.581 27.948C124.058 27.948 123.587 28.0693 123.167 28.312C122.747 28.5453 122.415 28.8767 122.173 29.306C121.93 29.7353 121.809 30.2393 121.809 30.818C121.809 31.3967 121.93 31.9007 122.173 32.33C122.415 32.7593 122.747 33.0953 123.167 33.338C123.587 33.5713 124.058 33.688 124.581 33.688C125.019 33.688 125.425 33.5993 125.799 33.422C126.172 33.2447 126.485 32.974 126.737 32.61L127.479 33.114C127.189 33.59 126.793 33.954 126.289 34.206C125.785 34.4487 125.22 34.57 124.595 34.57ZM133.967 34.5V32.876L133.925 32.61V29.894C133.925 29.2687 133.748 28.788 133.393 28.452C133.048 28.116 132.53 27.948 131.839 27.948C131.363 27.948 130.911 28.0273 130.481 28.186C130.052 28.3447 129.688 28.5547 129.389 28.816L128.941 28.074C129.315 27.7567 129.763 27.514 130.285 27.346C130.808 27.1687 131.359 27.08 131.937 27.08C132.889 27.08 133.622 27.318 134.135 27.794C134.658 28.2607 134.919 28.9747 134.919 29.936V34.5H133.967ZM131.433 34.57C130.883 34.57 130.402 34.4813 129.991 34.304C129.59 34.1173 129.282 33.8653 129.067 33.548C128.853 33.2213 128.745 32.848 128.745 32.428C128.745 32.0453 128.834 31.7 129.011 31.392C129.198 31.0747 129.497 30.8227 129.907 30.636C130.327 30.44 130.887 30.342 131.587 30.342H134.121V31.084H131.615C130.906 31.084 130.411 31.21 130.131 31.462C129.861 31.714 129.725 32.0267 129.725 32.4C129.725 32.82 129.889 33.156 130.215 33.408C130.542 33.66 130.999 33.786 131.587 33.786C132.147 33.786 132.628 33.66 133.029 33.408C133.44 33.1467 133.739 32.7733 133.925 32.288L134.149 32.974C133.963 33.4593 133.636 33.8467 133.169 34.136C132.712 34.4253 132.133 34.57 131.433 34.57ZM137.565 34.5V27.15H138.559V32.988L143.473 27.15H144.355V34.5H143.361V28.648L138.461 34.5H137.565ZM140.897 26.086C140.281 26.086 139.782 25.932 139.399 25.624C139.026 25.3067 138.83 24.854 138.811 24.266H139.525C139.535 24.6393 139.665 24.9333 139.917 25.148C140.169 25.3627 140.496 25.47 140.897 25.47C141.299 25.47 141.625 25.3627 141.877 25.148C142.139 24.9333 142.274 24.6393 142.283 24.266H142.997C142.988 24.854 142.792 25.3067 142.409 25.624C142.027 25.932 141.523 26.086 140.897 26.086ZM148.604 34.5V27.752L148.856 28.018H145.818V27.15H152.384V28.018H149.346L149.598 27.752V34.5H148.604ZM156.629 34.57C155.864 34.57 155.192 34.4113 154.613 34.094C154.035 33.7673 153.582 33.324 153.255 32.764C152.929 32.1947 152.765 31.546 152.765 30.818C152.765 30.09 152.919 29.446 153.227 28.886C153.545 28.326 153.974 27.8873 154.515 27.57C155.066 27.2433 155.682 27.08 156.363 27.08C157.054 27.08 157.665 27.2387 158.197 27.556C158.739 27.864 159.163 28.3027 159.471 28.872C159.779 29.432 159.933 30.0807 159.933 30.818C159.933 30.8647 159.929 30.916 159.919 30.972C159.919 31.0187 159.919 31.07 159.919 31.126H153.521V30.384H159.387L158.995 30.678C158.995 30.146 158.879 29.6747 158.645 29.264C158.421 28.844 158.113 28.5173 157.721 28.284C157.329 28.0507 156.877 27.934 156.363 27.934C155.859 27.934 155.407 28.0507 155.005 28.284C154.604 28.5173 154.291 28.844 154.067 29.264C153.843 29.684 153.731 30.1647 153.731 30.706V30.86C153.731 31.42 153.853 31.9147 154.095 32.344C154.347 32.764 154.693 33.0953 155.131 33.338C155.579 33.5713 156.088 33.688 156.657 33.688C157.105 33.688 157.521 33.6087 157.903 33.45C158.295 33.2913 158.631 33.0487 158.911 32.722L159.471 33.366C159.145 33.758 158.734 34.0567 158.239 34.262C157.754 34.4673 157.217 34.57 156.629 34.57Z" fill="white"/>
<defs>
<filter id="filter0_d_1_741" x="0" y="0" width="188.5" height="81" filterUnits="userSpaceOnUse" color-interpolation-filters="sRGB">
<feFlood flood-opacity="0" result="BackgroundImageFix"/>
<feColorMatrix in="SourceAlpha" type="matrix" values="0 0 0 0 0 0 0 0 0 0 0 0 0 0 0 0 0 0 127 0" result="hardAlpha"/>
<feOffset dy="4"/>
<feGaussianBlur stdDeviation="8"/>
<feComposite in2="hardAlpha" operator="out"/>
<feColorMatrix type="matrix" values="0 0 0 0 0.458824 0 0 0 0 0.219608 0 0 0 0 0.180392 0 0 0 0.29 0"/>
<feBlend mode="normal" in2="BackgroundImageFix" result="effect1_dropShadow_1_741"/>
<feBlend mode="normal" in="SourceGraphic" in2="effect1_dropShadow_1_741" result="shape"/>
</filter>
</defs>
</svg>
