<svg width="13" height="22" viewBox="0 0 13 22" fill="none" xmlns="http://www.w3.org/2000/svg">
<path d="M4.21976 15.3632V15.2403C4.23341 13.9361 4.36998 12.8983 4.62944 12.1267C4.88891 11.3551 5.25763 10.7303 5.73559 10.2524C6.21356 9.77441 6.78712 9.33399 7.45627 8.93114C7.85913 8.68533 8.22102 8.39513 8.54194 8.06056C8.86286 7.71915 9.11549 7.32654 9.29985 6.88271C9.49104 6.43889 9.58663 5.94726 9.58663 5.40784C9.58663 4.73869 9.42959 4.1583 9.11549 3.66668C8.8014 3.17506 8.38148 2.7961 7.85571 2.52981C7.32995 2.26351 6.74615 2.13036 6.10431 2.13036C5.54441 2.13036 5.00499 2.24644 4.48605 2.4786C3.96712 2.71075 3.53353 3.07605 3.1853 3.5745C2.83707 4.07295 2.63564 4.72504 2.58102 5.53075H0C0.0546247 4.36998 0.35506 3.37649 0.901307 2.55029C1.45438 1.72409 2.18157 1.09249 3.08288 0.655496C3.99102 0.218499 4.99816 0 6.10431 0C7.30605 0 8.35075 0.238983 9.2384 0.716949C10.1329 1.19492 10.8225 1.85041 11.3073 2.68344C11.7989 3.51646 12.0447 4.46557 12.0447 5.53075C12.0447 6.28184 11.9287 6.96123 11.6965 7.56893C11.4712 8.17663 11.1434 8.71947 10.7133 9.19743C10.2899 9.6754 9.77782 10.0987 9.17695 10.4675C8.57608 10.843 8.0947 11.239 7.73281 11.6555C7.37092 12.0652 7.10804 12.5534 6.94416 13.1202C6.78029 13.6869 6.69152 14.3936 6.67787 15.2403V15.3632H4.21976ZM5.53075 21.4265C5.02547 21.4265 4.59189 21.2456 4.23 20.8837C3.86811 20.5218 3.68717 20.0882 3.68717 19.583C3.68717 19.0777 3.86811 18.6441 4.23 18.2822C4.59189 17.9203 5.02547 17.7394 5.53075 17.7394C6.03603 17.7394 6.46961 17.9203 6.8315 18.2822C7.19339 18.6441 7.37433 19.0777 7.37433 19.583C7.37433 19.9175 7.28898 20.2248 7.11828 20.5047C6.95441 20.7847 6.73249 21.01 6.45254 21.1807C6.17942 21.3446 5.87215 21.4265 5.53075 21.4265Z" fill="white"/>
</svg>
