<svg width="24" height="24" viewBox="0 0 24 24" fill="none" xmlns="http://www.w3.org/2000/svg">
<path fill-rule="evenodd" clip-rule="evenodd" d="M16.5276 6C16.5089 5.9193 16.4895 5.83842 16.4692 5.75746C16.2052 4.70138 15.7895 3.55383 15.1116 2.65C14.4126 1.71802 13.392 1 11.9991 1C10.6062 1 9.58557 1.71802 8.88658 2.65C8.20871 3.55383 7.79296 4.70138 7.52894 5.75747C7.5087 5.83842 7.48925 5.9193 7.47054 6H5.87019C4.2908 6 2.9819 7.22455 2.87684 8.80044L2.1435 19.8004C2.02807 21.532 3.40147 23 5.13686 23H18.8613C20.5967 23 21.9701 21.532 21.8547 19.8004L21.1213 8.80044C21.0163 7.22455 19.7074 6 18.128 6H16.5276ZM7.99909 11C8.57207 11 8.99715 10.5684 8.9991 9.99817C8.99925 9.97438 8.99953 9.9506 8.99993 9.92682C9.00081 9.87413 9.0026 9.79455 9.00627 9.69194C9.0136 9.48652 9.02839 9.18999 9.05814 8.83304C9.07924 8.57976 9.10767 8.29862 9.14583 8H14.8524C14.8905 8.29862 14.9189 8.57976 14.9401 8.83305C14.9698 9.18999 14.9846 9.48652 14.9919 9.69194C14.9956 9.79455 14.9974 9.87413 14.9983 9.92682C14.9987 9.95134 14.999 9.97587 14.9991 10.0004C14.9991 10.0004 14.9991 11 15.9991 11C16.9991 11 16.9991 9.99866 16.9991 9.99866C16.999 9.9636 16.9986 9.92854 16.998 9.89349C16.9969 9.829 16.9948 9.7367 16.9906 9.62056C16.9824 9.38848 16.9659 9.06001 16.9331 8.66695C16.9161 8.46202 16.8944 8.23812 16.867 8H18.128C18.6545 8 19.0908 8.40818 19.1258 8.93348L19.8591 19.9335C19.8976 20.5107 19.4398 21 18.8613 21H5.13686C4.5584 21 4.1006 20.5107 4.13907 19.9335L4.87241 8.93348C4.90743 8.40818 5.34373 8 5.87019 8H7.13117C7.10374 8.23812 7.08212 8.46202 7.06504 8.66696C7.03229 9.06001 7.01583 9.38848 7.00754 9.62056C7.00339 9.7367 7.00128 9.829 7.00021 9.89349C6.99963 9.92785 6.9992 9.96221 6.99909 9.99658C6.99833 10.5672 7.42742 11 7.99909 11ZM9.53261 6H14.4656C14.2344 5.15322 13.9201 4.39466 13.5116 3.85C13.0856 3.28198 12.6062 3 11.9991 3C11.392 3 10.9126 3.28198 10.4866 3.85C10.0781 4.39466 9.76381 5.15322 9.53261 6Z" fill="white"/>
</svg>
