<svg width="20" height="20" viewBox="0 0 20 20" fill="none" xmlns="http://www.w3.org/2000/svg">
<g clip-path="url(#clip0_1_754)">
<path d="M11.3133 7.58057C11.3133 6.60307 12.1058 5.81057 13.0827 5.81057C14.0595 5.81057 14.852 6.60307 14.852 7.57994C14.852 8.55744 14.0602 9.34932 13.0827 9.34932C13.0827 9.34932 13.0827 9.34932 13.082 9.34932C12.1052 9.34932 11.3133 8.55744 11.3133 7.58057C11.3133 7.58057 11.3127 7.58057 11.3127 7.57994L11.3133 7.58057ZM15.4314 7.58432C15.4314 6.28369 14.377 5.22932 13.0764 5.22932C11.7758 5.22932 10.7214 6.28369 10.7214 7.58432C10.7214 8.88494 11.7758 9.93932 13.0764 9.93932C14.3764 9.93744 15.4295 8.88369 15.4314 7.58432ZM6.51641 14.8499L5.36578 14.3737C5.69328 15.0474 6.37266 15.5037 7.15828 15.5037C7.98141 15.5037 8.68828 15.0031 8.98953 14.2893L8.99453 14.2762C9.09141 14.0499 9.14828 13.7862 9.14828 13.5099C9.14828 12.4118 8.25828 11.5218 7.16016 11.5218C6.90703 11.5218 6.66516 11.5693 6.44266 11.6549L6.45641 11.6506L7.64578 12.1424C8.17828 12.3699 8.54516 12.8899 8.54516 13.4949C8.54516 14.3049 7.88828 14.9618 7.07828 14.9618C6.87578 14.9618 6.68328 14.9206 6.50766 14.8468L6.51703 14.8506L6.51641 14.8499ZM9.98328 0.627441C5.07266 0.628066 1.04516 4.40619 0.647031 9.21369L0.644531 9.24744L5.66828 11.3237C6.08578 11.0349 6.60266 10.8631 7.16016 10.8631C7.16078 10.8631 7.16141 10.8631 7.16141 10.8631C7.21078 10.8631 7.25891 10.8662 7.30828 10.8681L9.54266 7.63307V7.58682C9.54453 5.63682 11.1258 4.05682 13.0758 4.05682C15.027 4.05682 16.6089 5.63869 16.6089 7.58994C16.6089 9.54119 15.027 11.1231 13.0758 11.1231H12.9939L9.81016 13.3968C9.81016 13.4374 9.81328 13.4787 9.81328 13.5212C9.81328 13.5218 9.81328 13.5224 9.81328 13.5231C9.81328 14.9868 8.62641 16.1737 7.16266 16.1737C5.88328 16.1737 4.81516 15.2668 4.56703 14.0612L4.56391 14.0443L0.967031 12.5549C2.11766 16.5206 5.71766 19.3706 9.98266 19.3706C15.1583 19.3706 19.3539 15.1749 19.3539 9.99932C19.3539 4.82369 15.1583 0.628066 9.98266 0.628066L9.98328 0.627441Z" fill="white"/>
</g>
<defs>
<clipPath id="clip0_1_754">
<rect width="20" height="20" fill="white"/>
</clipPath>
</defs>
</svg>
