<svg width="20" height="20" viewBox="0 0 20 20" fill="none" xmlns="http://www.w3.org/2000/svg">
<path d="M13.7508 5.625H16.3108C16.4656 5.62515 16.6149 5.68277 16.7297 5.78669C16.8444 5.89062 16.9166 6.03344 16.932 6.1875L17.3133 10H16.0558L15.7433 6.875H13.7508V8.75C13.7508 8.91576 13.6849 9.07473 13.5677 9.19194C13.4505 9.30915 13.2915 9.375 13.1258 9.375C12.96 9.375 12.8011 9.30915 12.6838 9.19194C12.5666 9.07473 12.5008 8.91576 12.5008 8.75V6.875H7.50079V8.75C7.50079 8.91576 7.43494 9.07473 7.31773 9.19194C7.20052 9.30915 7.04155 9.375 6.87579 9.375C6.71003 9.375 6.55106 9.30915 6.43385 9.19194C6.31664 9.07473 6.25079 8.91576 6.25079 8.75V6.875H4.25704L3.25704 16.875H10.0008V18.125H2.56579C2.47849 18.1249 2.39219 18.1065 2.31242 18.0711C2.23266 18.0356 2.16121 17.9838 2.10269 17.919C2.04416 17.8543 1.99985 17.778 1.97261 17.695C1.94537 17.6121 1.93581 17.5244 1.94454 17.4375L3.06954 6.1875C3.08502 6.03344 3.15714 5.89062 3.27191 5.78669C3.38669 5.68277 3.53596 5.62515 3.69079 5.625H6.25079V5.18875C6.25079 3.02125 7.92079 1.25 10.0008 1.25C12.0808 1.25 13.7508 3.02125 13.7508 5.18875V5.62625V5.625ZM12.5008 5.625V5.18875C12.5008 3.69625 11.3733 2.5 10.0008 2.5C8.62829 2.5 7.50079 3.69625 7.50079 5.18875V5.62625H12.5008V5.625ZM16.4345 15.075L15.0008 13.6425V18.125C15.0008 18.2908 14.9349 18.4497 14.8177 18.5669C14.7005 18.6842 14.5415 18.75 14.3758 18.75C14.21 18.75 14.0511 18.6842 13.9338 18.5669C13.8166 18.4497 13.7508 18.2908 13.7508 18.125V13.6425L12.3183 15.075C12.2606 15.1347 12.1917 15.1823 12.1154 15.2151C12.0392 15.2478 11.9572 15.2651 11.8742 15.2658C11.7912 15.2665 11.7089 15.2507 11.6321 15.2193C11.5553 15.1878 11.4855 15.1414 11.4268 15.0827C11.3681 15.0241 11.3217 14.9543 11.2903 14.8775C11.2589 14.8007 11.243 14.7184 11.2438 14.6354C11.2445 14.5524 11.2617 14.4704 11.2945 14.3941C11.3272 14.3179 11.3748 14.2489 11.4345 14.1912L13.9345 11.6912C14.0517 11.5741 14.2107 11.5083 14.3764 11.5083C14.5421 11.5083 14.7011 11.5741 14.8183 11.6912L17.3183 14.1912C17.378 14.2489 17.4256 14.3179 17.4584 14.3941C17.4911 14.4704 17.5083 14.5524 17.5091 14.6354C17.5098 14.7184 17.494 14.8007 17.4626 14.8775C17.4311 14.9543 17.3847 15.0241 17.326 15.0827C17.2674 15.1414 17.1976 15.1878 17.1208 15.2193C17.0439 15.2507 16.9616 15.2665 16.8787 15.2658C16.7957 15.2651 16.7137 15.2478 16.6374 15.2151C16.5612 15.1823 16.4922 15.1347 16.4345 15.075Z" fill="white"/>
</svg>
